Coordinates
version=1
nRows=20
nColumns=30
inDegrees=yes

Units are S.I. units (second, meters, Newtons, ...)
Angles are in degrees.

endheader
time	floatyaw	floatroll	floatpitch	floatx	floaty	floatz	pro_sup_l	deviation_l	flexion_l	cmc_flexion_l	cmc_abduction_l	mp_flexion_l	ip_flexion_l	2mcp_flexion_l	2mcp_abduction_l	2pm_flexion_l	2md_flexion_l	3mcp_flexion_l	3mcp_abduction_l	3pm_flexion_l	3md_flexion_l	4mcp_flexion_l	4mcp_abduction_l	4pm_flexion_l	4md_flexion_l	5mcp_flexion_l	5mcp_abduction_l	5pm_flexion_l	5md_flexion_l
-1.495000	-0.679314	-3.115271	87.889519	-0.009259	-0.228496	0.003726	87.356470	0.241064	-4.920246	26.590095	0.110447	-19.034416	-33.225427	16.380890	5.909772	33.594547	20.377454	3.879754	3.886557	38.573893	21.286178	-7.850241	-3.482104	57.499160	28.495475	-23.782620	-6.780783	68.063197	37.609725
-1.485000	-0.679314	-3.115271	87.889519	-0.009322	-0.228535	0.003781	87.343372	0.230085	-4.901651	26.498887	0.053734	-19.004547	-33.125663	16.334104	5.877377	33.544904	20.385540	3.869206	3.893153	38.506709	21.244747	-7.891044	-3.458166	57.466137	28.442388	-23.873263	-6.810727	68.026340	37.487127
-1.475000	-0.679314	-3.115271	87.889519	-0.009377	-0.228588	0.003838	87.309487	0.212867	-4.906479	26.429177	0.071623	-18.995398	-33.079403	16.350690	5.861786	33.467458	20.404608	3.928755	3.899201	38.387512	21.224617	-7.881719	-3.427145	57.387172	28.458298	-23.911320	-6.855075	67.900676	37.456913
-1.465000	-0.679314	-3.115271	87.889519	-0.009409	-0.228647	0.003878	87.257400	0.193050	-4.937354	26.382564	0.176095	-19.004201	-33.088254	16.432902	5.865812	33.380267	20.433911	4.056703	3.904350	38.234764	21.233947	-7.815953	-3.391479	57.272803	28.550118	-23.876201	-6.909834	67.703906	37.536742
-1.455000	-0.679314	-3.115271	87.889519	-0.009415	-0.228698	0.003894	87.197677	0.175783	-4.984985	26.350647	0.339785	-19.020822	-33.124301	16.552210	5.882217	33.310496	20.467137	4.220583	3.906543	38.083912	21.265881	-7.716789	-3.355713	57.157267	28.691816	-23.778610	-6.965596	67.484571	37.700080
-1.445000	-0.679314	-3.115271	87.889519	-0.009399	-0.228731	0.003888	87.146036	0.165424	-5.031485	26.320906	0.505664	-19.032554	-33.143196	16.660174	5.897807	33.283279	20.495029	4.367451	3.903171	37.975502	21.302169	-7.627344	-3.325022	57.085577	28.833310	-23.656284	-7.011124	67.299711	37.888169
-1.435000	-0.679314	-3.115271	87.889519	-0.009374	-0.228738	0.003873	87.117554	0.163657	-5.058232	26.284473	0.612456	-19.030160	-33.107322	16.710536	5.900584	33.310555	20.509395	4.445467	3.892735	37.940452	21.323023	-7.590109	-3.303151	57.093717	28.921448	-23.555634	-7.038353	67.189489	38.035175
-1.425000	-0.679314	-3.115271	87.889519	-0.009351	-0.228718	0.003866	87.120396	0.169076	-5.054351	26.240946	0.622561	-19.011928	-33.005259	16.681381	5.885456	33.384964	20.506247	4.426091	3.875813	37.988944	21.317645	-7.626377	-3.291152	57.191838	28.923266	-23.509129	-7.045864	67.162014	38.094880
-1.415000	-0.679314	-3.115271	87.889519	-0.009338	-0.228678	0.003880	87.152451	0.178289	-5.021281	26.197531	0.537185	-18.983324	-32.856109	16.585166	5.855398	33.481806	20.486593	4.315243	3.854700	38.107682	21.289498	-7.727513	-3.287681	57.358989	28.839890	-23.521134	-7.038429	67.194741	38.057225
-1.405000	-0.679314	-3.115271	87.889519	-0.009337	-0.228628	0.003915	87.202360	0.187559	-4.971354	26.163751	0.392229	-18.952807	-32.697890	16.461980	5.818340	33.567870	20.454936	4.148786	3.832343	38.265398	21.253880	-7.861609	-3.290443	57.551035	28.704975	-23.569323	-7.022649	67.248939	37.949096
-1.395000	-0.679314	-3.115271	87.889519	-0.009346	-0.228581	0.003964	87.253674	0.193886	-4.921878	26.145827	0.240544	-18.927240	-32.569681	16.361470	5.782670	33.612590	20.416843	3.977001	3.811603	38.422651	21.229974	-7.989264	-3.297667	57.716345	28.569995	-23.618909	-7.001604	67.287767	37.821354
-1.385000	-0.679314	-3.115271	87.889519	-0.009361	-0.228551	0.004016	87.290063	0.195248	-4.888310	26.144534	0.131309	-18.910093	-32.498610	16.323477	5.754235	33.597004	20.377374	3.846760	3.795125	38.542025	21.232103	-8.078589	-3.308647	57.811780	28.483977	-23.640459	-6.972484	67.289418	37.728715
-1.375000	-0.679314	-3.115271	87.889519	-0.009379	-0.228544	0.004062	87.300339	0.190624	-4.879426	26.157221	0.094242	-18.902604	-32.495773	16.364979	5.735755	33.518415	20.341062	3.787981	3.785174	38.596978	21.264211	-8.113382	-3.323201	57.814170	28.475928	-23.622370	-6.929257	67.251674	37.709882
-1.365000	-0.679314	-3.115271	87.889519	-0.009400	-0.228565	0.004098	87.282546	0.180435	-4.895522	26.181627	0.131481	-18.905550	-32.557890	16.475969	5.727588	33.390899	20.312555	3.806984	3.782922	38.578560	21.319093	-8.094557	-3.340611	57.725763	28.546000	-23.573748	-6.868730	67.188687	37.774567
-1.355000	-0.679314	-3.115271	87.889519	-0.009422	-0.228608	0.004125	87.245661	0.167179	-4.929354	26.218290	0.218089	-18.919622	-32.670328	16.623833	5.728496	33.242083	20.296507	3.887045	3.787683	38.498244	21.381790	-8.037586	-3.358956	57.573150	28.668085	-23.518431	-6.795666	67.123044	37.902438
-1.345000	-0.679314	-3.115271	87.889519	-0.009441	-0.228661	0.004142	87.207112	0.155394	-4.969238	26.269976	0.311879	-18.944426	-32.810621	16.764797	5.736087	33.106044	20.296338	3.995667	3.797088	38.384580	21.435605	-7.967236	-3.375495	57.398978	28.802458	-23.483734	-6.723023	67.076549	38.055083
-1.335000	-0.679314	-3.115271	87.889519	-0.009452	-0.228708	0.004151	87.186085	0.150349	-5.003463	26.338655	0.370586	-18.977442	-32.953822	16.859521	5.747438	33.013100	20.312894	4.096710	3.808402	38.273485	21.468822	-7.909422	-3.387974	57.247553	28.912859	-23.488489	-6.666816	67.062633	38.195203
-1.325000	-0.679314	-3.115271	87.889519	-0.009453	-0.228737	0.004146	87.195440	0.155918	-5.024374	26.421951	0.369523	-19.013853	-33.079068	16.887003	5.760102	32.980023	20.344246	4.162856	3.820136	38.195941	21.479541	-7.881898	-3.395930	57.149609	28.980042	-23.535066	-6.638863	67.082720	38.302080
-1.315000	-0.679314	-3.115271	87.889519	-0.009440	-0.228739	0.004126	87.236313	0.172776	-5.030261	26.511158	0.310646	-19.047324	-33.173995	16.850004	5.772836	33.005740	20.386760	4.182755	3.832700	38.168929	21.475868	-7.888451	-3.400919	57.113830	29.005288	-23.609215	-6.641907	67.127873	38.374446
-1.305000	-0.679314	-3.115271	87.889519	-0.009415	-0.228716	0.004085	87.297958	0.197945	-5.024265	26.592186	0.218322	-19.071327	-33.234336	16.769186	5.785378	33.075208	20.436290	4.159882	3.847591	38.193583	21.470673	-7.920468	-3.405389	57.129496	29.003057	-23.688393	-6.669553	67.185120	38.420948
